<svg aria-hidden="true" style="position: absolute; width: 0; height: 0; overflow: hidden;" version="1.1" xmlns="http://www.w3.org/2000/svg" xmlns:xlink="http://www.w3.org/1999/xlink">
<defs>
<symbol id="icon-logo" viewBox="0 0 32 32">
<path fill="#000" style="fill: var(--color1, #000)" d="M2.555 10.693c0 0-0.474-8.812 1.441-9.253s5.218 2.721 5.218 2.721l-6.659 6.532z"></path>
<path fill="#000" style="fill: var(--color1, #000)" d="M20.642 4.376c0 0 3.535-3.52 6.040-2.934 2.504 0.586 0.591 7.545 0.591 7.545l-6.631-4.611z"></path>
<path fill="#f07f2e" style="fill: var(--color2, #f07f2e); stroke: var(--color1, #000)" stroke="#000" stroke-linejoin="miter" stroke-linecap="butt" stroke-miterlimit="10" stroke-width="0.5333" d="M27.558 26.809c-2.653 2.097-4.428 2.782-7.444 3.598-2.013 0.545-7.083 0.517-11.808-1.384-3.31-1.448-4.607-3.022-5.232-3.88-0.544-0.746-1.65-2.402-1.713-4.214-0.092-2.637-0.015-5.21 1.196-10.232 1.211-5.024 6.659-6.532 6.659-6.532 5.953-1.406 10.897-0.301 12.612 0s6.589 3.387 7.008 9.571c0.064 0.925 1.1 4.214 1.2 6.977 0.030 0.847 0.055 1.975-0.367 3.133-0.487 1.335-1.573 2.513-2.11 2.963z"></path>
<path fill="#000" style="fill: var(--color1, #000)" d="M11.149 14.33c0.042-0.079 0.090-0.155 0.142-0.23 0.025-0.036 0.050-0.071 0.075-0.107 0.014-0.019 0.030-0.039 0.044-0.057 0.034-0.048-0.076 0.092-0.006 0.008 0.072-0.087 0.145-0.171 0.226-0.25 0.042-0.042 0.086-0.082 0.131-0.121 0.016-0.014 0.095-0.077 0.033-0.029s0.028-0.019 0.048-0.033c0.050-0.034 0.103-0.067 0.157-0.095 0.026-0.014 0.055-0.026 0.083-0.040 0.055-0.028-0.098 0.031 0.009-0.002 0.059-0.019 0.118-0.033 0.178-0.047 0.079-0.020-0.101 0.003-0.019 0.003 0.036 0 0.072-0.005 0.109-0.003 0.033 0 0.065 0.006 0.097 0.006 0.059 0-0.095-0.026-0.039-0.005 0.012 0.005 0.030 0.005 0.044 0.009 0.034 0.009 0.069 0.017 0.101 0.028 0.014 0.005 0.030 0.011 0.044 0.015 0.092 0.026-0.053-0.034-0.008-0.003 0.076 0.051 0.165 0.090 0.243 0.141 0.016 0.011 0.031 0.022 0.047 0.034-0.075-0.057 0 0.001 0.014 0.015 0.042 0.039 0.086 0.076 0.126 0.116 0.209 0.208 0.336 0.389 0.495 0.645 0.132 0.213 0.418 0.296 0.639 0.168 0.213-0.124 0.301-0.422 0.168-0.636-0.5-0.802-1.259-1.613-2.296-1.432-0.623 0.109-1.111 0.599-1.468 1.088-0.081 0.11-0.159 0.225-0.223 0.344-0.118 0.222-0.056 0.506 0.168 0.636 0.21 0.119 0.52 0.053 0.639-0.169z"></path>
<path fill="#000" style="fill: var(--color1, #000)" d="M24.801 13.665c0.041-0.076 0.087-0.149 0.136-0.22 0.023-0.034 0.047-0.068 0.072-0.102 0.014-0.019 0.028-0.037 0.041-0.056 0.034-0.047-0.078 0.095-0.008 0.012 0.069-0.082 0.139-0.163 0.217-0.239 0.041-0.040 0.083-0.079 0.126-0.115 0.015-0.014 0.093-0.076 0.030-0.026s0.023-0.017 0.044-0.030c0.048-0.033 0.098-0.064 0.15-0.092 0.026-0.014 0.053-0.026 0.078-0.039 0.055-0.028-0.103 0.033 0.005 0 0.056-0.017 0.114-0.031 0.171-0.045 0.078-0.019-0.104 0.005-0.023 0.003 0.034 0 0.069-0.005 0.104-0.003 0.031 0 0.062 0.006 0.093 0.006 0.059 0-0.098-0.026-0.044-0.005 0.012 0.005 0.028 0.005 0.041 0.008 0.033 0.009 0.065 0.017 0.097 0.026 0.014 0.005 0.028 0.011 0.042 0.014 0.090 0.026-0.056-0.036-0.013-0.006 0.073 0.050 0.157 0.085 0.232 0.137 0.016 0.011 0.030 0.022 0.044 0.033-0.079-0.060-0.006-0.003 0.009 0.011 0.040 0.037 0.083 0.073 0.121 0.112 0.204 0.203 0.313 0.362 0.472 0.614 0.132 0.213 0.417 0.296 0.639 0.168 0.213-0.124 0.301-0.422 0.168-0.636-0.485-0.776-1.218-1.556-2.222-1.381-0.603 0.105-1.072 0.579-1.418 1.050-0.078 0.105-0.151 0.216-0.213 0.33-0.118 0.222-0.056 0.506 0.168 0.636 0.213 0.124 0.523 0.057 0.642-0.166z"></path>
<path fill="none" stroke="#000" style="stroke: var(--color1, #000)" stroke-linejoin="miter" stroke-linecap="butt" stroke-miterlimit="10" stroke-width="0.5333" d="M14.163 18.362l-4.834-0.155"></path>
<path fill="none" stroke="#000" style="stroke: var(--color1, #000)" stroke-linejoin="miter" stroke-linecap="butt" stroke-miterlimit="10" stroke-width="0.5333" d="M14.243 20.022l-4.197 0.621"></path>
<path fill="none" stroke="#000" style="stroke: var(--color1, #000)" stroke-linejoin="miter" stroke-linecap="butt" stroke-miterlimit="10" stroke-width="0.5333" d="M26.899 17.646l4.834-0.155"></path>
<path fill="none" stroke="#000" style="stroke: var(--color1, #000)" stroke-linejoin="miter" stroke-linecap="butt" stroke-miterlimit="10" stroke-width="0.5333" d="M26.819 19.3l4.197 0.619"></path>
<path fill="none" stroke="#000" style="stroke: var(--color1, #000)" stroke-linejoin="miter" stroke-linecap="butt" stroke-miterlimit="10" stroke-width="0.5333" d="M19.982 19.514c0 0 2.339 3.224 4.317-0.059"></path>
<path fill="none" stroke="#000" style="stroke: var(--color1, #000)" stroke-linejoin="miter" stroke-linecap="butt" stroke-miterlimit="10" stroke-width="0.5333" d="M22.16 17.105v3.641"></path>
<path fill="#000" style="fill: var(--color1, #000)" d="M22.118 17.269c0.979 0 1.773-0.557 1.773-1.244s-0.794-1.244-1.773-1.244c-0.979 0-1.773 0.557-1.773 1.244s0.794 1.244 1.773 1.244z"></path>
<path fill="#000" style="fill: var(--color1, #000); stroke: var(--color1, #000)" stroke="#000" stroke-linejoin="miter" stroke-linecap="butt" stroke-miterlimit="10" stroke-width="0.5333" d="M6.587 15.508c1.572-1.621-3.453-5.024-3.823-5.169-0.016-0.006-1.429 6.361-1.356 10.195 0.017 0.895 0.187 1.827 0.187 1.827 0.294 0.261 0.487 1.1 2.69 0.028 1.232-0.6 1.475-1.823 0.354-2.059-2.158-0.451 0.006-0.932-0.347-1.786-0.893-2.153 0.643-1.331 2.297-3.036z"></path>
<path fill="#000" style="fill: var(--color1, #000); stroke: var(--color1, #000)" stroke="#000" stroke-linejoin="miter" stroke-linecap="butt" stroke-miterlimit="10" stroke-width="0.5333" d="M27.935 21.832c0.182-1.907 1.972-1.369 1.972-1.369 0.596 3.481-1.487 5.845-2.989 6.672-0.365 0-0.714-2.128 0.106-2.399s0.729-0.998 0.911-2.904z"></path>
</symbol>
<symbol id="icon-twitter" viewBox="0 0 32 32">
<path fill="none" stroke="#2f2f37" style="stroke: var(--color1, #2f2f37)" stroke-linejoin="miter" stroke-linecap="butt" stroke-miterlimit="4" stroke-width="1" d="M8 0.5h16c4.142 0 7.5 3.358 7.5 7.5v16c0 4.142-3.358 7.5-7.5 7.5h-16c-4.142 0-7.5-3.358-7.5-7.5v-16c0-4.142 3.358-7.5 7.5-7.5z"></path>
<path d="M13.026 23c6.038 0 9.341-5.003 9.341-9.334 0-0.14 0-0.282-0.006-0.422 0.643-0.466 1.198-1.042 1.639-1.702-0.601 0.265-1.237 0.439-1.889 0.518 0.686-0.41 1.201-1.056 1.447-1.817-0.645 0.382-1.351 0.65-2.087 0.793-0.495-0.527-1.15-0.876-1.863-0.993s-1.445 0.004-2.083 0.345c-0.637 0.341-1.145 0.883-1.443 1.541s-0.371 1.397-0.207 2.101c-1.305-0.066-2.582-0.405-3.748-0.995s-2.194-1.42-3.019-2.434c-0.419 0.723-0.546 1.578-0.357 2.392s0.681 1.525 1.375 1.99c-0.52-0.018-1.029-0.158-1.486-0.408v0.045c0.001 0.757 0.263 1.491 0.743 2.078s1.147 0.989 1.889 1.14c-0.282 0.078-0.573 0.116-0.865 0.115-0.206 0.001-0.412-0.018-0.614-0.057 0.21 0.652 0.618 1.222 1.168 1.63s1.214 0.634 1.899 0.647c-1.163 0.914-2.601 1.409-4.080 1.407-0.261 0.001-0.521-0.014-0.78-0.045 1.501 0.957 3.245 1.465 5.026 1.465z"></path>
</symbol>
<symbol id="icon-github" viewBox="0 0 32 32">
<path fill="none" stroke="#2f2f37" style="stroke: var(--color1, #2f2f37)" stroke-linejoin="miter" stroke-linecap="butt" stroke-miterlimit="4" stroke-width="1" d="M8 0.5h16c4.142 0 7.5 3.358 7.5 7.5v16c0 4.142-3.358 7.5-7.5 7.5h-16c-4.142 0-7.5-3.358-7.5-7.5v-16c0-4.142 3.358-7.5 7.5-7.5z"></path>
<path d="M16 8c-4.42 0-8 3.58-8 8 0 3.54 2.29 6.53 5.47 7.59 0.4 0.070 0.55-0.17 0.55-0.38 0-0.19-0.010-0.82-0.010-1.49-2.010 0.37-2.53-0.49-2.69-0.94-0.090-0.23-0.48-0.94-0.82-1.13-0.28-0.15-0.68-0.52-0.010-0.53 0.63-0.010 1.080 0.58 1.23 0.82 0.72 1.21 1.87 0.87 2.33 0.66 0.070-0.52 0.28-0.87 0.51-1.070-1.78-0.2-3.64-0.89-3.64-3.95 0-0.87 0.31-1.59 0.82-2.15-0.080-0.2-0.36-1.020 0.080-2.12 0 0 0.67-0.21 2.2 0.82 0.64-0.18 1.32-0.27 2-0.27s1.36 0.090 2 0.27c1.53-1.040 2.2-0.82 2.2-0.82 0.44 1.1 0.16 1.92 0.080 2.12 0.51 0.56 0.82 1.27 0.82 2.15 0 3.070-1.87 3.75-3.65 3.95 0.29 0.25 0.54 0.73 0.54 1.48 0 1.070-0.010 1.93-0.010 2.2 0 0.21 0.15 0.46 0.55 0.38 1.588-0.536 2.968-1.557 3.946-2.918s1.504-2.996 1.504-4.672c0-4.42-3.58-8-8-8z"></path>
</symbol>
<symbol id="icon-tiktok" viewBox="0 0 32 32">
<path fill="none" stroke="#2f2f37" style="stroke: var(--color1, #2f2f37)" stroke-linejoin="miter" stroke-linecap="butt" stroke-miterlimit="4" stroke-width="1" d="M8 0.5h16c4.142 0 7.5 3.358 7.5 7.5v16c0 4.142-3.358 7.5-7.5 7.5h-16c-4.142 0-7.5-3.358-7.5-7.5v-16c0-4.142 3.358-7.5 7.5-7.5z"></path>
<path d="M18.667 13.497v4.837c-0 0.9-0.281 1.778-0.802 2.511s-1.259 1.286-2.109 1.581-1.771 0.319-2.635 0.067c-0.864-0.252-1.628-0.767-2.186-1.473s-0.883-1.569-0.928-2.467c-0.046-0.899 0.19-1.79 0.673-2.549s1.192-1.349 2.026-1.687c0.834-0.338 1.753-0.408 2.628-0.201v2.109c-0.457-0.217-0.972-0.279-1.467-0.178s-0.944 0.36-1.28 0.739c-0.335 0.378-0.539 0.855-0.579 1.36s0.083 1.007 0.354 1.435 0.672 0.755 1.145 0.935c0.473 0.179 0.991 0.2 1.476 0.060s0.912-0.435 1.216-0.839c0.304-0.404 0.468-0.896 0.468-1.401v-9h2c0 0.884 0.351 1.732 0.976 2.357s1.473 0.976 2.357 0.976v2c-1.212 0.002-2.388-0.411-3.333-1.17z"></path>
</symbol>
<symbol id="icon-youtube" viewBox="0 0 32 32">
<path fill="none" stroke="#2f2f37" style="stroke: var(--color1, #2f2f37)" stroke-linejoin="miter" stroke-linecap="butt" stroke-miterlimit="4" stroke-width="1" d="M8 0.5h16c4.142 0 7.5 3.358 7.5 7.5v16c0 4.142-3.358 7.5-7.5 7.5h-16c-4.142 0-7.5-3.358-7.5-7.5v-16c0-4.142 3.358-7.5 7.5-7.5z"></path>
<path d="M16.163 10.667c0.356 0.002 1.247 0.011 2.193 0.049l0.336 0.015c0.953 0.045 1.905 0.122 2.377 0.253 0.63 0.177 1.125 0.693 1.292 1.348 0.267 1.040 0.3 3.068 0.304 3.559l0.001 0.101v0.116c-0.005 0.491-0.038 2.52-0.305 3.559-0.169 0.657-0.665 1.173-1.292 1.348-0.473 0.131-1.425 0.209-2.377 0.253l-0.336 0.015c-0.947 0.037-1.837 0.047-2.193 0.048l-0.157 0.001h-0.17c-0.753-0.005-3.904-0.039-4.907-0.317-0.629-0.177-1.125-0.693-1.292-1.348-0.267-1.040-0.3-3.068-0.304-3.559v-0.217c0.004-0.491 0.037-2.52 0.304-3.559 0.169-0.657 0.665-1.173 1.293-1.347 1.002-0.279 4.153-0.313 4.907-0.317h0.326zM14.666 13.667v4.667l4-2.333-4-2.333z"></path>
</symbol>
<symbol id="icon-facebook" viewBox="0 0 32 32">
<path fill="none" stroke="#2f2f37" style="stroke: var(--color1, #2f2f37)" stroke-linejoin="miter" stroke-linecap="butt" stroke-miterlimit="4" stroke-width="1" d="M8 0.5h16c4.142 0 7.5 3.358 7.5 7.5v16c0 4.142-3.358 7.5-7.5 7.5h-16c-4.142 0-7.5-3.358-7.5-7.5v-16c0-4.142 3.358-7.5 7.5-7.5z"></path>
<path d="M18.665 10.657h1.461v-2.544c-0.252-0.035-1.119-0.113-2.128-0.113-2.106 0-3.549 1.325-3.549 3.759v2.241h-2.324v2.844h2.324v7.156h2.849v-7.155h2.23l0.354-2.844h-2.585v-1.959c0.001-0.822 0.222-1.385 1.367-1.385z"></path>
</symbol>
<symbol id="icon-instagram" viewBox="0 0 32 32">
<path fill="none" stroke="#2f2f37" style="stroke: var(--color1, #2f2f37)" stroke-linejoin="miter" stroke-linecap="butt" stroke-miterlimit="4" stroke-width="1" d="M8 0.5h16c4.142 0 7.5 3.358 7.5 7.5v16c0 4.142-3.358 7.5-7.5 7.5h-16c-4.142 0-7.5-3.358-7.5-7.5v-16c0-4.142 3.358-7.5 7.5-7.5z"></path>
<path d="M16.685 9.334c0.486-0.002 0.973 0.003 1.459 0.015l0.129 0.005c0.149 0.005 0.297 0.012 0.475 0.020 0.709 0.033 1.193 0.145 1.618 0.31 0.44 0.169 0.811 0.399 1.181 0.769 0.339 0.333 0.601 0.736 0.769 1.181 0.165 0.425 0.277 0.909 0.31 1.619 0.008 0.177 0.015 0.325 0.020 0.475l0.004 0.129c0.012 0.486 0.017 0.972 0.015 1.459l0.001 0.497v0.873c0.002 0.486-0.003 0.973-0.015 1.459l-0.004 0.129c-0.005 0.149-0.012 0.297-0.020 0.475-0.033 0.709-0.147 1.193-0.311 1.618-0.167 0.445-0.429 0.848-0.769 1.181-0.333 0.339-0.736 0.601-1.181 0.769-0.425 0.165-0.909 0.277-1.618 0.31-0.178 0.008-0.325 0.015-0.475 0.020l-0.129 0.004c-0.486 0.012-0.973 0.017-1.459 0.015l-1.37 0.001c-0.486 0.002-0.973-0.003-1.459-0.015l-0.129-0.004c-0.158-0.006-0.316-0.012-0.475-0.020-0.709-0.033-1.193-0.147-1.619-0.311-0.445-0.167-0.848-0.429-1.181-0.769-0.339-0.333-0.602-0.736-0.769-1.181-0.165-0.425-0.277-0.909-0.31-1.618-0.007-0.158-0.014-0.316-0.020-0.475l-0.003-0.129c-0.012-0.486-0.018-0.973-0.017-1.459v-1.371c-0.002-0.486 0.003-0.973 0.015-1.459l0.005-0.129c0.005-0.149 0.012-0.297 0.020-0.475 0.033-0.71 0.145-1.193 0.31-1.619 0.168-0.445 0.431-0.848 0.771-1.18 0.333-0.339 0.735-0.602 1.18-0.77 0.425-0.165 0.909-0.277 1.619-0.31l0.475-0.020 0.129-0.003c0.486-0.012 0.972-0.018 1.459-0.017l1.371 0.001zM16 12.667c-0.442-0.006-0.88 0.075-1.29 0.24s-0.783 0.409-1.097 0.719c-0.315 0.31-0.564 0.68-0.735 1.087s-0.258 0.845-0.258 1.287 0.088 0.879 0.258 1.287c0.17 0.407 0.42 0.777 0.735 1.087s0.688 0.555 1.097 0.719c0.41 0.165 0.848 0.246 1.29 0.24 0.884 0 1.732-0.351 2.357-0.976s0.976-1.473 0.976-2.357c0-0.884-0.351-1.732-0.976-2.357s-1.473-0.976-2.357-0.976zM16 14.001c0.266-0.005 0.53 0.043 0.776 0.142s0.472 0.245 0.661 0.431c0.19 0.186 0.34 0.408 0.443 0.653s0.156 0.508 0.156 0.774c0 0.266-0.053 0.529-0.156 0.774s-0.253 0.467-0.443 0.653-0.414 0.333-0.661 0.431c-0.247 0.098-0.511 0.147-0.776 0.142-0.53 0-1.039-0.211-1.414-0.586s-0.586-0.884-0.586-1.414c0-0.53 0.211-1.039 0.586-1.414s0.884-0.586 1.414-0.586l-0.001 0.001zM19.5 11.667c-0.215 0.009-0.419 0.1-0.568 0.255s-0.232 0.362-0.232 0.577c0 0.215 0.083 0.422 0.232 0.577s0.352 0.247 0.568 0.255c0.221 0 0.433-0.088 0.589-0.244s0.244-0.368 0.244-0.589-0.088-0.433-0.244-0.589c-0.156-0.156-0.368-0.244-0.589-0.244v0.001z"></path>
</symbol>
<symbol id="icon-player" viewBox="0 0 32 32">
<path fill="#fff" style="fill: var(--color1, #fff)" d="M24.28 17.506l-10.964 9.592c-1.292 1.132-3.316 0.212-3.316-1.506v-19.184c-0-0.385 0.11-0.761 0.318-1.084s0.505-0.58 0.855-0.739 0.739-0.214 1.119-0.157c0.38 0.056 0.736 0.221 1.026 0.474l10.96 9.592c0.215 0.188 0.387 0.419 0.505 0.679s0.179 0.542 0.179 0.827c0 0.285-0.061 0.567-0.179 0.827s-0.29 0.491-0.505 0.679h0.002z"></path>
</symbol>
</defs>
</svg>
